<svg width="19" height="26" viewBox="0 0 19 26" fill="none" xmlns="http://www.w3.org/2000/svg">
<path fill-rule="evenodd" clip-rule="evenodd" d="M14.018 17.1494C13.9306 17.2567 13.8778 17.3786 13.7723 17.6223C13.6069 18.0044 13.4562 18.3923 13.3204 18.7851C10.8312 19.5418 8.16875 19.5417 5.6795 18.785C5.54377 18.3922 5.39308 18.0044 5.22768 17.6223C5.12219 17.3786 5.06945 17.2567 4.98203 17.1494C4.89461 17.0421 4.75571 16.9446 4.4779 16.7495C2.22351 15.1667 0.75 12.5471 0.75 9.58337C0.75 4.75088 4.66751 0.833374 9.5 0.833374C14.3325 0.833374 18.25 4.75088 18.25 9.58337C18.25 12.5471 16.7765 15.1667 14.5221 16.7495C14.2443 16.9446 14.1054 17.0421 14.018 17.1494ZM6.27725 21.0058C6.40143 21.6409 6.4883 22.284 6.53699 22.9318C6.58492 23.5694 6.60889 23.8883 6.75596 24.1074C6.90303 24.3266 7.16499 24.4575 7.6889 24.7195L7.71115 24.7306C8.83726 25.2937 10.1627 25.2937 11.2889 24.7306L11.3111 24.7195C11.835 24.4575 12.097 24.3266 12.244 24.1074C12.3911 23.8883 12.4151 23.5694 12.463 22.9318C12.5117 22.2841 12.5986 21.641 12.7227 21.0059C10.5999 21.4682 8.40006 21.4682 6.27725 21.0058Z" fill="#00A46C"/>
</svg>
