<svg width="34" height="34" viewBox="0 0 34 34" fill="none" xmlns="http://www.w3.org/2000/svg">
<path d="M7.08331 19.0584C7.08331 18.0493 7.08331 17.5448 7.30498 17.114C7.52664 16.6833 7.93721 16.39 8.75836 15.8035L15.8375 10.747C16.3988 10.346 16.6795 10.1455 17 10.1455C17.3204 10.1455 17.6011 10.346 18.1625 10.747L25.2416 15.8035C26.0627 16.39 26.4733 16.6833 26.695 17.114C26.9166 17.5448 26.9166 18.0493 26.9166 19.0584V27.75C26.9166 28.6928 26.9166 29.1642 26.6238 29.4571C26.3309 29.75 25.8595 29.75 24.9166 29.75H9.08332C8.1405 29.75 7.6691 29.75 7.37621 29.4571C7.08331 29.1642 7.08331 28.6928 7.08331 27.75V19.0584Z" fill="#767676"/>
<path d="M4.25 17.8032C4.25 18.0701 4.25 18.2035 4.3341 18.2447C4.41819 18.2858 4.52352 18.2039 4.73418 18.04L15.7721 9.45498C16.362 8.99621 16.6569 8.76682 17 8.76682C17.3431 8.76682 17.638 8.99621 18.2279 9.45498L29.2658 18.04C29.4765 18.2039 29.5818 18.2858 29.6659 18.2447C29.75 18.2035 29.75 18.0701 29.75 17.8032V16.5615C29.75 16.0811 29.75 15.8409 29.6483 15.633C29.5466 15.4251 29.357 15.2777 28.9779 14.9828L18.2279 6.62164C17.638 6.16287 17.3431 5.93349 17 5.93349C16.6569 5.93349 16.362 6.16287 15.7721 6.62164L5.02212 14.9828C4.64295 15.2777 4.45337 15.4251 4.35168 15.633C4.25 15.8409 4.25 16.0811 4.25 16.5615V17.8032Z" fill="#767676"/>
<path d="M18.5416 21.25H15.4583C14.3537 21.25 13.4583 22.1454 13.4583 23.25V29.6C13.4583 29.6828 13.5255 29.75 13.6083 29.75H20.3916C20.4745 29.75 20.5416 29.6828 20.5416 29.6V23.25C20.5416 22.1454 19.6462 21.25 18.5416 21.25Z" fill="white"/>
<rect x="22.6667" y="7.08337" width="2.83333" height="5.66667" rx="0.5" fill="#767676"/>
</svg>
