<svg width="20" height="23" viewBox="0 0 20 23" fill="none" xmlns="http://www.w3.org/2000/svg">
<path fill-rule="evenodd" clip-rule="evenodd" d="M18.5252 3.65336L11.5757 0.674983C10.5695 0.243756 9.43054 0.243756 8.42434 0.674982L1.4748 3.65336C0.98455 3.86346 0.666687 4.34552 0.666687 4.87889V11.8827C0.666687 14.4664 1.91441 16.8909 4.01678 18.3926L8.45005 21.5592C9.37724 22.2215 10.6228 22.2215 11.55 21.5592L15.9833 18.3926C18.0856 16.8909 19.3334 14.4664 19.3334 11.8827V4.87889C19.3334 4.34552 19.0155 3.86347 18.5252 3.65336ZM14.7809 8.62469C15.1259 8.19343 15.056 7.56414 14.6247 7.21913C14.1935 6.87412 13.5642 6.94404 13.2192 7.37531L8.58377 13.1695L6.70713 11.2929C6.3166 10.9024 5.68344 10.9024 5.29291 11.2929C4.90239 11.6834 4.90239 12.3166 5.29291 12.7071L7.56457 14.9788C8.19674 15.6109 9.23804 15.5533 9.79653 14.8551L14.7809 8.62469Z" fill="#00A36D"/>
</svg>
