<svg width="23" height="25" viewBox="0 0 23 25" fill="none" xmlns="http://www.w3.org/2000/svg">
<path fill-rule="evenodd" clip-rule="evenodd" d="M11.7631 23.9464C13.7834 22.9343 22.7212 18.0393 22.7212 10.6506C22.7212 4.26023 17.4196 0 11.3606 0C5.5046 0 0 4.26023 0 10.6506C0 18.0393 8.93781 22.9343 10.9581 23.9464C11.2161 24.0757 11.5051 24.0757 11.7631 23.9464ZM11.097 15.3433L7.05798 11.0918C6.24805 10.2392 6.12136 8.94518 6.75055 7.95171C7.7984 6.2972 10.2388 6.37927 11.1732 8.10043L11.272 8.28256C11.3102 8.35282 11.411 8.35282 11.4492 8.28256L11.5481 8.10043C12.4824 6.37927 14.9228 6.2972 15.9707 7.95171C16.5999 8.94518 16.4732 10.2392 15.6632 11.0918L11.6242 15.3433C11.5005 15.4736 11.4387 15.5387 11.3606 15.5387C11.2826 15.5387 11.2207 15.4736 11.097 15.3433Z" fill="#767676"/>
</svg>
