<svg width="17" height="22" viewBox="0 0 17 22" fill="none" xmlns="http://www.w3.org/2000/svg">
<path fill-rule="evenodd" clip-rule="evenodd" d="M0.627473 1.41916C0.041687 2.00495 0.041687 2.94775 0.041687 4.83337V17.375C0.041687 19.2607 0.041687 20.2035 0.627473 20.7893C1.21326 21.375 2.15607 21.375 4.04169 21.375H12.9584C14.844 21.375 15.7868 21.375 16.3726 20.7893C16.9584 20.2035 16.9584 19.2607 16.9584 17.375V4.83337C16.9584 2.94776 16.9584 2.00495 16.3726 1.41916C15.7868 0.833374 14.844 0.833374 12.9584 0.833374H4.04169C2.15607 0.833374 1.21326 0.833374 0.627473 1.41916ZM4.87502 5.87504C4.32274 5.87504 3.87502 6.32276 3.87502 6.87504C3.87502 7.42733 4.32274 7.87504 4.87502 7.87504H12.125C12.6773 7.87504 13.125 7.42733 13.125 6.87504C13.125 6.32276 12.6773 5.87504 12.125 5.87504H4.87502ZM4.87502 10.7084C4.32274 10.7084 3.87502 11.1561 3.87502 11.7084C3.87502 12.2607 4.32274 12.7084 4.87502 12.7084H12.125C12.6773 12.7084 13.125 12.2607 13.125 11.7084C13.125 11.1561 12.6773 10.7084 12.125 10.7084H4.87502ZM4.87502 15.5417C4.32274 15.5417 3.87502 15.9894 3.87502 16.5417C3.87502 17.094 4.32274 17.5417 4.87502 17.5417H9.70835C10.2606 17.5417 10.7084 17.094 10.7084 16.5417C10.7084 15.9894 10.2606 15.5417 9.70835 15.5417H4.87502Z" fill="#00A36D"/>
</svg>
